<?xml version="1.0" encoding="UTF-8" standalone="no"?>
<!-- Uploaded to: SVG Repo, www.svgrepo.com, Generator: SVG Repo Mixer Tools -->

<svg
   width="800px"
   height="800px"
   viewBox="0 0 20 20"
   version="1.1"
   id="svg12"
   sodipodi:docname="github.svg"
   inkscape:version="1.2.1 (9c6d41e410, 2022-07-14)"
   xmlns:inkscape="http://www.inkscape.org/namespaces/inkscape"
   xmlns:sodipodi="http://sodipodi.sourceforge.net/DTD/sodipodi-0.dtd"
   xmlns="http://www.w3.org/2000/svg"
   xmlns:svg="http://www.w3.org/2000/svg"
   xmlns:rdf="http://www.w3.org/1999/02/22-rdf-syntax-ns#"
   xmlns:cc="http://creativecommons.org/ns#"
   xmlns:dc="http://purl.org/dc/elements/1.1/">
  <sodipodi:namedview
     id="namedview14"
     pagecolor="#ffffff"
     bordercolor="#000000"
     borderopacity="0.25"
     inkscape:showpageshadow="2"
     inkscape:pageopacity="0.0"
     inkscape:pagecheckerboard="0"
     inkscape:deskcolor="#d1d1d1"
     showgrid="false"
     inkscape:zoom="1.04625"
     inkscape:cx="341.21864"
     inkscape:cy="247.55078"
     inkscape:window-width="1920"
     inkscape:window-height="1017"
     inkscape:window-x="-8"
     inkscape:window-y="-8"
     inkscape:window-maximized="1"
     inkscape:current-layer="svg12" />
  <title
     id="title2">github [#142]</title>
  <desc
     id="desc4">Created with Sketch.</desc>
  <defs
     id="defs6" />
  <path
     style="fill:#10657e;fill-opacity:1;stroke-width:0.0238949;paint-order:stroke fill markers"
     d="M 6.6547929,19.884394 C 4.8814106,19.260778 3.2159171,18.017611 2.0426609,16.441782 1.3643637,15.530745 0.88231683,14.604575 0.52457303,13.525037 0.27845943,12.782358 0.14167563,12.155884 0.04459163,11.326709 -0.01473427,10.820019 -0.01489447,9.6292786 0.04429593,9.1283824 0.25674853,7.3305109 0.81135123,5.8174099 1.7838075,4.3825409 2.152552,3.8384546 2.4897409,3.4344959 3.0096479,2.9139606 3.8246709,2.0979531 4.5641866,1.5577616 5.5556291,1.0542065 6.6266169,0.51024997 7.6812949,0.19325212 8.9128569,0.04514497 9.4119219,-0.01487234 10.533247,-0.01508748 11.0395,0.04473694 c 1.666521,0.19693433 3.254935,0.79962738 4.576772,1.73656736 0.697984,0.4947426 1.560116,1.3029936 2.060987,1.9321806 1.260506,1.5834275 1.987979,3.3494542 2.23054,5.4148975 0.05911,0.5033517 0.05914,1.6946006 5e-5,2.1983266 -0.09739,0.830179 -0.234025,1.455883 -0.480061,2.198328 -0.972983,2.936095 -3.171038,5.238577 -6.046589,6.333855 -0.421208,0.160435 -0.685095,0.122091 -0.83632,-0.121522 l -0.07169,-0.115478 v -1.698368 c 0,-1.884601 5.75e-4,-1.876288 -0.163179,-2.356171 -0.09708,-0.284489 -0.220668,-0.507492 -0.374588,-0.675905 l -0.119129,-0.130346 0.137289,-0.01615 c 0.954831,-0.112345 1.856286,-0.394872 2.478986,-0.776945 0.894088,-0.548589 1.509312,-1.457858 1.765337,-2.609078 0.12363,-0.555906 0.145502,-0.790973 0.145285,-1.5614876 -2e-4,-0.6567163 -0.0048,-0.7378913 -0.05473,-0.967742 -0.143664,-0.6609953 -0.407482,-1.223515 -0.810363,-1.727877 L 15.348084,6.9390559 15.40902,6.7195014 c 0.121827,-0.4389473 0.157907,-0.8586205 0.112344,-1.3067703 -0.0519,-0.5104782 -0.220478,-1.1456505 -0.3179,-1.1977892 -0.03455,-0.018489 -0.130273,-0.022851 -0.291683,-0.01329 -0.592118,0.035073 -1.377291,0.3593923 -2.205989,0.911194 l -0.22588,0.1504055 -0.170623,-0.044387 C 12.021275,5.1439384 11.572143,5.0576741 11.177178,5.0014206 10.845235,4.9541436 10.702753,4.9477796 9.9761809,4.9477796 c -0.727365,0 -0.868852,0.00633 -1.202353,0.053821 -0.391556,0.055754 -0.970828,0.169217 -1.170077,0.2291842 l -0.114364,0.03442 -0.291848,-0.1861975 C 6.5017429,4.6350921 5.9415899,4.3753371 5.4144731,4.2521601 5.2226359,4.2073314 4.8991864,4.1819261 4.7873651,4.2029039 c -0.078804,0.014784 -0.084832,0.02358 -0.1455525,0.212386 -0.1672292,0.519989 -0.21874,0.8420442 -0.2187722,1.3678115 -2.4e-5,0.4257912 0.033114,0.6742965 0.132765,0.9955662 l 0.049395,0.1592455 -0.1319828,0.1633525 c -0.5150017,0.637408 -0.8246697,1.4446378 -0.8731255,2.2760298 -0.022164,0.3802967 0.00362,1.0514326 0.054709,1.4237266 0.1570403,1.144484 0.5321898,1.970352 1.194098,2.62873 0.5289845,0.526163 1.1225938,0.853597 1.9851068,1.094982 0.30963,0.08665 0.821589,0.188752 1.105138,0.220395 0.08214,0.0092 0.149343,0.02104 0.149343,0.02639 0,0.0053 -0.05431,0.08059 -0.120696,0.1672 -0.208894,0.272544 -0.346971,0.590951 -0.428124,0.987257 l -0.04149,0.202615 -0.13842,0.05564 c -0.446989,0.179688 -1.007688,0.244697 -1.389137,0.161061 C 5.4520704,16.231603 5.0019136,15.890315 4.6777941,15.36514 4.3598899,14.850035 4.0572019,14.557859 3.6379286,14.361386 c -0.324149,-0.151897 -0.6684365,-0.186231 -0.907654,-0.09051 -0.233532,0.09344 -0.1113975,0.331261 0.3195865,0.622298 0.4158988,0.28085 0.7625573,0.759383 1.0478393,1.446454 0.210536,0.507053 0.6352835,0.927123 1.1603157,1.147539 0.4959298,0.208198 1.2320958,0.260456 1.9340138,0.137289 0.144344,-0.02533 0.264862,-0.04363 0.267816,-0.04068 0.003,0.003 0.0085,0.461915 0.01235,1.019913 l 0.007,1.014542 -0.06536,0.11119 c -0.04853,0.08255 -0.09744,0.127173 -0.189876,0.173238 -0.167684,0.08356 -0.290818,0.07961 -0.569132,-0.01826 z"
     id="path925" />
  <metadata
     id="metadata2816">
    <rdf:RDF>
      <cc:Work
         rdf:about="">
        <dc:title>github [#142]</dc:title>
      </cc:Work>
    </rdf:RDF>
  </metadata>
</svg>
