<?xml version="1.0" encoding="UTF-8" standalone="no"?>
<!-- Uploaded to: SVG Repo, www.svgrepo.com, Generator: SVG Repo Mixer Tools -->

<svg
   width="800px"
   height="800px"
   viewBox="0 0 24 24"
   fill="none"
   version="1.1"
   id="svg20767"
   sodipodiDocname="mailDark.svg"
   inkscapeVersion="1.2.1 (9c6d41e410, 2022-07-14)"
   xmlnsInkscape="http://www.inkscape.org/namespaces/inkscape"
   xmlnsSodipodi="http://sodipodi.sourceforge.net/DTD/sodipodi-0.dtd"
   xmlns="http://www.w3.org/2000/svg"
   xmlnsSvg="http://www.w3.org/2000/svg">
  <defs
     id="defs20771" />
  <sodipodiNamedview
     id="namedview20769"
     pagecolor="#ffffff"
     bordercolor="#000000"
     borderopacity="0.25"
     inkscapeShowpageshadow="2"
     inkscapePageopacity="0.0"
     inkscapePagecheckerboard="0"
     inkscapeDeskcolor="#d1d1d1"
     showgrid="false"
     inkscapeZoom="1.04625"
     inkscapeCx="311.58901"
     inkscapeCy="400.4779"
     inkscapeWindow-width="1920"
     inkscapeWindow-height="1017"
     inkscapeWindow-x="-8"
     inkscapeWindow-y="-8"
     inkscapeWindow-maximized="1"
     inkscapeCurrent-layer="svg20767"
     showguides="false" />
  <rect
     width="24"
     height="24"
     fill="white"
     id="rect20763" />
  <path
     style="fill:#11f0fd;fill-opacity:1;stroke-width:0.0286738;paint-order:stroke fill markers"
     d="M 5.1756419,19.97102 C 4.3213337,19.941117 3.9483572,19.848662 3.4549616,19.544486 2.8186143,19.15218 2.3185569,18.501389 2.1415136,17.83512 2.0218421,17.384759 2.02152,17.369017 2.02152,11.97132 c 0,-4.7440117 0.00407,-5.1995387 0.048846,-5.4623647 0.062453,-0.366614 0.1396646,-0.600518 0.2957264,-0.895864 0.3743824,-0.708517 1.0489617,-1.2619967 1.7875824,-1.4666789 0.4834071,-0.133959 0.3718365,-0.132081 7.8463392,-0.132081 7.474504,0 7.362933,-0.00188 7.84634,0.132081 0.742516,0.2057613 1.411226,0.7544269 1.787583,1.4666789 0.156062,0.295346 0.233274,0.52925 0.295726,0.895864 0.04478,0.262866 0.04885,0.720016 0.04885,5.4910387 0,4.771023 -0.0041,5.228173 -0.04885,5.49104 -0.08638,0.507084 -0.268072,0.933978 -0.557718,1.310395 -0.491958,0.639336 -1.153757,1.023044 -1.974081,1.144561 -0.263478,0.03903 -13.1731434,0.06175 -14.2222221,0.02503 z m 7.3832001,-6.668013 c 0.428958,-0.08137 0.869682,-0.269725 1.198895,-0.512373 0.26981,-0.198866 5.893003,-5.1272897 5.979535,-5.2407387 0.224159,-0.293888 0.262411,-0.745094 0.09172,-1.081931 -0.03799,-0.07497 -0.14181,-0.20279 -0.230707,-0.284037 -0.30648,-0.280105 -0.738912,-0.338871 -1.112358,-0.151166 -0.136157,0.06844 -0.84767,0.676454 -3.045055,2.602125 -3.182388,2.7888727 -3.047019,2.6833077 -3.440861,2.6833077 -0.393841,0 -0.258473,0.105565 -3.4408598,-2.6833077 -2.1973849,-1.925671 -2.9088985,-2.533688 -3.045055,-2.602125 -0.6034938,-0.303334 -1.3330086,0.07136 -1.4386251,0.73891 -0.045469,0.287384 0.018929,0.551676 0.1901025,0.780189 0.082782,0.110512 5.7067646,5.0398117 5.9787574,5.2402527 0.316589,0.233305 0.718144,0.409335 1.139193,0.499388 0.311983,0.06673 0.856134,0.07205 1.175315,0.01151 z"
     id="path21979" />
</svg>
