<?xml version="1.0" encoding="UTF-8" standalone="no"?>
<!-- Uploaded to: SVG Repo, www.svgrepo.com, Generator: SVG Repo Mixer Tools -->

<svg
   width="800px"
   height="800px"
   viewBox="-5 0 20 20"
   version="1.1"
   id="svg6496"
   sodipodiDocname="facebook.svg"
   inkscapeVersion="1.2.1 (9c6d41e410, 2022-07-14)"
   xmlnsInkscape="http://www.inkscape.org/namespaces/inkscape"
   xmlnsSodipodi="http://sodipodi.sourceforge.net/DTD/sodipodi-0.dtd"
   xmlns="http://www.w3.org/2000/svg"
   xmlnsSvg="http://www.w3.org/2000/svg"
   xmlnsRdf="http://www.w3.org/1999/02/22-rdf-syntax-ns#"
   xmlnsCc="http://creativecommons.org/ns#"
   xmlnsDc="http://purl.org/dc/elements/1.1/">
  <sodipodiNamedview
     id="namedview6498"
     pagecolor="#ffffff"
     bordercolor="#000000"
     borderopacity="0.25"
     inkscapeShowpageshadow="2"
     inkscapePageopacity="0.0"
     inkscapePagecheckerboard="0"
     inkscapeDskcolor="#d1d1d1"
     showgrid="false"
     inkscapeZoom="1.04625"
     inkscapeCx="341.21864"
     inkscapeCy="400.4779"
     inkscapeWindow-width="1920"
     inkscapeWindow-height="1017"
     inkscapeWindow-x="-8"
     inkscapeWindow-y="-8"
     inkscapeWindow-maximized="1"
     inkscapeCurrent-layer="svg6496" />
  <title
     id="title6486">facebook [#176]</title>
  <desc
     id="desc6488">Created with Sketch.</desc>
  <defs
     id="defs6490" />
  <path
     style="fill:#10637f;stroke-width:0.0238949;paint-order:stroke fill markers;fill-opacity:1"
     d="M 2.945043,15.483863 V 10.979681 H 1.475509 0.005975 V 8.9964069 7.0131334 h 1.4679733 1.4679735 l 0.0094,-1.5471925 c 0.00875,-1.4408725 0.012876,-1.5677172 0.060019,-1.845878 0.3467137,-2.0457319 1.4958321,-3.24930054 3.3882021,-3.54875042 0.553373,-0.0875661 2.268661,-0.0604242 3.206195,0.0507334 l 0.125448,0.0148736 V 1.5678579 2.9987964 l -0.878136,4.15e-4 c -0.970473,4.575e-4 -1.096082,0.013715 -1.360565,0.1435878 -0.381785,0.1874732 -0.578393,0.5259592 -0.651595,1.1217985 -0.01439,0.117151 -0.02488,0.7389487 -0.02488,1.4755067 v 1.2730283 h 1.589463 1.589464 l -0.01219,0.053763 c -0.0067,0.02957 -0.103672,0.887097 -0.215487,1.9056155 -0.111816,1.0185185 -0.209175,1.8867988 -0.216354,1.9295108 l -0.01305,0.07766 h -1.360925 -1.360924 v 4.504183 4.504181 H 4.8805269 2.945043 Z"
     id="path6686" />
  <metadata
     id="metadata7414">
    <rdfRDF>
      <ccWork
         rdfAbout="">
        <dcTitle>facebook [#176]</dcTitle>
      </ccWork>
    </rdfRDF>
  </metadata>
</svg>
