<?xml version="1.0" encoding="UTF-8" standalone="no"?>
<!-- Uploaded to: SVG Repo, www.svgrepo.com, Generator: SVG Repo Mixer Tools -->

<svg
   width="800px"
   height="800px"
   viewBox="0 0 24 24"
   fill="none"
   version="1.1"
   id="svg4"
   sodipodiDocname="mailDark.svg"
   inkscapeVersion="1.2.1 (9c6d41e410, 2022-07-14)"
   xmlnsInkscape="http://www.inkscape.org/namespaces/inkscape"
   xmlnsSodipodi="http://sodipodi.sourceforge.net/DTD/sodipodi-0.dtd"
   xmlns="http://www.w3.org/2000/svg"
   xmlnsSvg="http://www.w3.org/2000/svg">
  <defs
     id="defs8" />
  <sodipodiNamedview
     id="namedview6"
     pagecolor="#ffffff"
     bordercolor="#000000"
     borderopacity="0.25"
     inkscapeShowpageshadow="2"
     inkscapePageopacity="0.0"
     inkscapePagecheckerboard="0"
     inkscapeDeskcolor="#d1d1d1"
     showgrid="false"
     inkscapeZoom="1.04625"
     inkscapeCx="341.21864"
     inkscapeCy="400.4779"
     inkscapeWindow-width="1920"
     inkscapeWindow-height="1017"
     inkscapeWindow-x="-8"
     inkscapeWindow-y="-8"
     inkscapeWindow-maximized="1"
     inkscapeCurrent-layer="svg4" />
  <path
     style="fill:#11f0fd;stroke-width:0.0286738;paint-order:stroke fill markers"
     d="M 5.307554,19.953534 C 4.3986374,19.925572 4.0807424,19.865897 3.6300059,19.638625 2.7839099,19.212003 2.2124825,18.433919 2.0495885,17.486648 1.9997369,17.196748 1.975747,7.3357904 2.0235721,6.7927046 2.0647765,6.3248009 2.1434765,6.0068252 2.2974092,5.6863064 2.5842906,5.0889617 3.0458843,4.620644 3.6444716,4.3196213 3.9216809,4.1802158 4.1795339,4.1056463 4.5870899,4.0470212 c 0.3233319,-0.04651 0.842136,-0.049966 7.4014681,-0.049305 7.690709,7.74e-4 7.351988,-0.00603 7.905642,0.1587363 0.873309,0.2598897 1.617717,0.9981585 1.895915,1.8802806 0.151496,0.4803669 0.148264,0.3507561 0.148264,5.9459349 0,5.59067 0.0032,5.462849 -0.147403,5.945936 -0.271986,0.872624 -1.027565,1.621611 -1.896852,1.880303 -0.534266,0.158993 -0.269348,0.153243 -7.360763,0.159776 -3.5956996,0.0033 -6.8473123,-0.0035 -7.225807,-0.01515 z m 13.572544,-1.97829 c 0.461945,-0.03154 0.582424,-0.06955 0.776639,-0.245011 0.170019,-0.153602 0.254017,-0.31269 0.287528,-0.544563 0.03043,-0.210555 0.04389,-9.9628578 0.01376,-9.9628578 -0.0198,0 -2.501569,1.8692092 -4.069821,3.0652898 -2.02961,1.547952 -2.277787,1.725061 -2.695217,1.923417 -0.740527,0.351887 -1.635544,0.36375 -2.374663,0.03148 C 10.382328,12.046994 10.185135,11.904781 6.7269129,9.2923254 L 3.9885575,7.223678 l -0.00813,4.852613 c -0.0054,3.222637 0.00183,4.928828 0.021521,5.079512 0.03417,0.26152 0.1101693,0.412188 0.2897514,0.57443 0.1872555,0.169174 0.3269388,0.217056 0.7085949,0.242897 0.5003988,0.03388 13.3857964,0.03584 13.8797984,0.0021 z m -6.500077,-7.556739 c 0.224733,-0.112749 0.584913,-0.374016 1.974128,-1.4319926 0.686022,-0.522449 1.85699,-1.4112431 2.602151,-1.9750976 0.745161,-0.5638545 1.354839,-1.0308288 1.354839,-1.0377207 0,-0.00689 -2.851613,-0.012531 -6.336918,-0.012531 -3.6085573,0 -6.3369181,0.010817 -6.3369181,0.025124 0,0.013818 0.3516129,0.2894421 0.781362,0.612498 0.4297491,0.3230559 1.5039429,1.1337447 2.387097,1.8015303 2.4403851,1.8452656 2.6954511,2.0261826 2.9534051,2.0948236 0.160003,0.04258 0.456083,0.006 0.620854,-0.07663 z"
     id="path914" />
</svg>
